<svg width="150" height="150" viewBox="0 0 150 150" fill="none" xmlns="http://www.w3.org/2000/svg">
<g clip-path="url(#clip0_2_3968)">
<path d="M78.8983 39.423L59.6675 71.1537L80.1804 104.808C80.3086 105.064 80.3727 105.32 80.3086 105.577C80.2445 105.833 79.988 105.641 79.6034 105.705H64.9239C63.8983 105.705 63.1932 105.641 62.7445 105C61.3983 102.308 59.988 99.6794 58.6419 96.9871C57.2957 94.3589 55.8214 91.6666 54.2829 88.9101C52.7445 86.1537 51.206 83.3973 49.6675 80.5768H49.5393C48.1932 83.3332 46.7188 86.0896 45.2445 88.846C43.7701 91.6025 42.2957 94.3589 40.8855 97.0512C39.4111 99.7435 37.9368 102.5 36.4624 105.128C36.206 105.769 35.6932 105.833 34.9881 105.833H20.8855C20.6291 105.833 20.4368 105.961 20.4368 105.641C20.3727 105.385 20.4368 105.128 20.565 104.936L40.5009 72.2435L21.0778 39.3589C20.8855 39.1025 20.8214 38.846 20.9496 38.7178C21.0778 38.5255 21.3342 38.4614 21.5906 38.4614H36.1419C36.4624 38.4614 36.7829 38.5255 37.0393 38.5896C37.2957 38.7178 37.4881 38.9101 37.6804 39.1666C38.8983 41.923 40.3086 44.6794 41.7829 47.4358C43.3214 50.1922 44.7957 52.8845 46.3983 55.5768C47.9368 58.2691 49.347 60.9614 50.6932 63.7178H50.8214C52.1675 60.8973 53.5778 58.1409 54.988 55.4486C56.3983 52.7563 57.8727 50.064 59.347 47.3717C60.8214 44.6794 62.2316 41.923 63.6419 39.2948C63.706 39.0383 63.8342 38.7819 64.0265 38.6537C64.2829 38.5255 64.5393 38.4614 64.8598 38.5255H78.3855C78.706 38.4614 79.0265 38.6537 79.0906 38.9742C79.1547 39.0383 79.0265 39.2948 78.8983 39.423Z" fill="#FF61F6"/>
<path d="M108.514 107.051C103.77 107.115 99.0266 106.154 94.7317 104.167C90.6932 102.308 87.3599 99.2306 85.0522 95.4486C82.6804 91.5383 81.5266 86.6665 81.5266 80.8332C81.4625 76.0896 82.6804 71.4101 85.0522 67.3076C87.4881 63.1409 91.0138 59.6793 95.2445 57.3717C99.7317 54.8717 105.116 53.6537 111.462 53.6537C111.783 53.6537 112.232 53.6537 112.809 53.7178C113.386 53.7819 114.027 53.7819 114.796 53.846V33.5896C114.796 33.1409 114.988 32.8845 115.437 32.8845H128.45C128.77 32.8204 129.027 33.0768 129.091 33.3332C129.091 33.3973 129.091 33.4614 129.091 33.4614V94.487C129.091 95.6409 129.155 96.9229 129.219 98.3332C129.347 99.6793 129.411 100.961 129.475 102.051C129.475 102.5 129.283 102.884 128.834 103.077C125.501 104.487 121.975 105.513 118.386 106.154C115.116 106.731 111.847 107.051 108.514 107.051ZM114.796 94.2306V66.0255C114.219 65.8973 113.642 65.7691 113.065 65.705C112.36 65.6409 111.655 65.5768 110.95 65.5768C108.45 65.5768 105.95 66.0896 103.706 67.2435C101.527 68.3332 99.6676 69.9358 98.2573 71.987C96.8471 74.0383 96.142 76.7947 96.142 80.1281C96.0779 82.3717 96.4625 84.6152 97.2317 86.7306C97.8727 88.4614 98.8343 89.9999 100.116 91.2819C101.334 92.4358 102.809 93.3332 104.475 93.846C106.206 94.4229 108.001 94.6793 109.796 94.6793C110.757 94.6793 111.655 94.6152 112.488 94.5511C113.321 94.6152 114.027 94.487 114.796 94.2306Z" fill="#FF61F6"/>
</g>
<defs>
<clipPath id="clip0_2_3968">
<rect width="150" height="150" rx="75" fill="white"/>
</clipPath>
</defs>
</svg>
